<svg version="1.1" xmlns="http://www.w3.org/2000/svg" viewBox="0 0 150 150">
	<path d="M47.2,136c56.6,0,87.6-46.9,87.6-87.6c0-1.3,0-2.7-0.1-4c6-4.3,11.2-9.8,15.4-15.9 c-5.5,2.4-11.4,4.1-17.7,4.8c6.4-3.8,11.2-9.8,13.5-17c-5.9,3.5-12.5,6.1-19.5,7.5c-5.6-6-13.6-9.7-22.5-9.7 c-17,0-30.8,13.8-30.8,30.8c0,2.4,0.3,4.8,0.8,7c-25.6-1.3-48.3-13.5-63.4-32.2c-2.6,4.5-4.2,9.8-4.2,15.5 c0,10.7,5.4,20.1,13.7,25.6c-5-0.2-9.8-1.5-13.9-3.8c0,0.1,0,0.3,0,0.4c0,14.9,10.6,27.3,24.7,30.2c-2.6,0.7-5.3,1.1-8.1,1.1 c-2,0-3.9-0.2-5.8-0.6c3.9,12.2,15.3,21.1,28.7,21.4c-10.5,8.3-23.8,13.2-38.2,13.2c-2.5,0-4.9-0.1-7.3-0.4 C13.6,130.9,29.8,136,47.2,136"/>
</svg>
