<svg version="1.1" xmlns="http://www.w3.org/2000/svg" viewBox="0 0 150 150">
	<path d="M124.6,74.1c0,0,19.8-27.9,21.7-37c0.7-3.3-0.8-5.1-4.2-5.1c0,0-11.4,0-17.1,0c-3.9,0-5.4,1.7-6.5,4.2 c0,0-9.3,19.8-20.5,32.2c-3.6,4-5.5,5.2-7.5,5.2c-1.6,0-2.4-1.3-2.4-5V36.8c0-4.4-0.5-5.8-4.2-5.8H56.4c-2.1,0-3.4,1.2-3.4,2.9 c0,4.2,6.4,5.1,6.4,16.5v23.4c0,4.7-0.3,6.5-2.5,6.5C51,80.4,37,60.1,29.2,37.1c-1.6-4.7-3.3-6-7.7-6H4.3c-2.5,0-4.3,1.7-4.3,4.2 c0,4.6,5.4,25.8,26.4,54.2c14.1,19.1,32.7,29.4,49.5,29.4c10.2,0,12.7-1.7,12.7-6V98.2c0-3.7,1.4-5.2,3.5-5.2 c2.4,0,6.5,0.8,16.2,10.3c11.5,11,12.3,15.6,18.6,15.6h19.2c2,0,3.8-0.9,3.8-4.2c0-4.3-5.6-12-14.3-21.2 c-3.5-4.7-9.3-9.8-11.1-12.2C122,78.6,122.8,77,124.6,74.1z"/>
</svg>
